<svg id="svg" version="1.1" xmlns="http://www.w3.org/2000/svg" xmlns:xlink="http://www.w3.org/1999/xlink" width="400" height="400" viewBox="0, 0, 400,400"><g id="svgg"><path id="path0" d="M64.300 0.285 C 63.695 0.377,63.200 0.621,63.200 0.827 C 63.200 1.032,62.930 1.200,62.600 1.200 C 62.270 1.200,62.000 1.380,62.000 1.600 C 62.000 1.820,61.685 2.005,61.300 2.012 C 60.915 2.019,60.150 2.570,59.600 3.237 C 59.050 3.904,58.195 4.881,57.700 5.407 C 57.205 5.933,56.800 6.642,56.800 6.982 C 56.800 7.322,56.665 7.601,56.500 7.603 C 56.094 7.607,55.200 9.586,55.200 10.480 C 55.200 10.876,55.020 11.200,54.800 11.200 C 54.535 11.200,54.400 33.333,54.400 76.800 L 54.400 142.400 47.224 142.400 C 42.871 142.400,39.950 142.557,39.800 142.800 C 39.664 143.020,39.023 143.200,38.376 143.200 C 37.729 143.200,37.200 143.380,37.200 143.600 C 37.200 143.820,36.910 144.000,36.554 144.000 C 35.841 144.000,32.678 145.625,32.467 146.100 C 32.393 146.265,32.086 146.400,31.784 146.400 C 30.101 146.400,23.999 154.631,24.000 156.900 C 24.000 157.285,23.820 157.600,23.600 157.600 C 23.380 157.600,23.200 158.140,23.200 158.800 C 23.200 159.460,23.020 160.000,22.800 160.000 C 22.535 160.000,22.400 181.533,22.400 223.800 C 22.400 266.067,22.535 287.600,22.800 287.600 C 23.020 287.600,23.200 288.140,23.200 288.800 C 23.200 289.460,23.380 290.000,23.600 290.000 C 23.820 290.000,24.000 290.360,24.000 290.800 C 24.000 291.240,24.180 291.600,24.400 291.600 C 24.620 291.600,24.800 291.879,24.800 292.220 C 24.800 292.970,25.895 295.153,26.652 295.909 C 26.953 296.210,27.200 296.618,27.200 296.815 C 27.200 297.343,29.766 299.816,31.177 300.650 C 31.850 301.047,32.400 301.514,32.400 301.686 C 32.400 301.859,32.760 302.000,33.200 302.000 C 33.640 302.000,34.000 302.180,34.000 302.400 C 34.000 302.620,34.360 302.800,34.800 302.800 C 35.240 302.800,35.600 302.980,35.600 303.200 C 35.600 303.420,35.960 303.600,36.400 303.600 C 36.840 303.600,37.200 303.780,37.200 304.000 C 37.200 304.220,37.729 304.400,38.376 304.400 C 39.023 304.400,39.664 304.580,39.800 304.800 C 39.950 305.043,42.871 305.200,47.224 305.200 L 54.400 305.200 54.400 347.000 C 54.400 374.600,54.536 388.800,54.800 388.800 C 55.020 388.800,55.200 389.340,55.200 390.000 C 55.200 390.660,55.380 391.200,55.600 391.200 C 55.820 391.200,56.000 391.470,56.000 391.800 C 56.000 392.130,56.180 392.400,56.400 392.400 C 56.620 392.400,56.800 392.678,56.800 393.018 C 56.800 393.358,57.205 394.067,57.700 394.593 C 58.195 395.119,59.050 396.096,59.600 396.763 C 60.150 397.430,60.915 397.981,61.300 397.988 C 61.685 397.995,62.000 398.180,62.000 398.400 C 62.000 398.620,62.255 398.800,62.567 398.800 C 62.878 398.800,63.208 399.025,63.300 399.300 C 63.545 400.036,336.455 400.036,336.700 399.300 C 336.792 399.025,337.122 398.800,337.433 398.800 C 337.745 398.800,338.000 398.620,338.000 398.400 C 338.000 398.180,338.315 397.995,338.700 397.988 C 339.085 397.981,339.850 397.430,340.400 396.763 C 340.950 396.096,341.805 395.119,342.300 394.593 C 342.795 394.067,343.200 393.358,343.200 393.018 C 343.200 392.678,343.380 392.400,343.600 392.400 C 343.820 392.400,344.000 392.130,344.000 391.800 C 344.000 391.470,344.180 391.200,344.400 391.200 C 344.620 391.200,344.800 390.660,344.800 390.000 C 344.800 389.340,344.980 388.800,345.200 388.800 C 345.464 388.800,345.600 374.600,345.600 347.000 L 345.600 305.200 352.776 305.200 C 357.129 305.200,360.050 305.043,360.200 304.800 C 360.336 304.580,360.977 304.400,361.624 304.400 C 362.271 304.400,362.800 304.220,362.800 304.000 C 362.800 303.780,363.160 303.600,363.600 303.600 C 364.040 303.600,364.400 303.420,364.400 303.200 C 364.400 302.980,364.760 302.800,365.200 302.800 C 365.640 302.800,366.000 302.620,366.000 302.400 C 366.000 302.180,366.360 302.000,366.800 302.000 C 367.240 302.000,367.600 301.859,367.600 301.686 C 367.600 301.514,368.150 301.047,368.823 300.650 C 370.247 299.809,372.800 297.341,372.800 296.805 C 372.800 296.602,373.238 295.998,373.773 295.463 C 374.309 294.927,374.869 293.839,375.018 293.045 C 375.167 292.250,375.449 291.600,375.645 291.600 C 375.840 291.600,376.000 291.240,376.000 290.800 C 376.000 290.360,376.180 290.000,376.400 290.000 C 376.620 290.000,376.800 289.460,376.800 288.800 C 376.800 288.140,376.980 287.600,377.200 287.600 C 377.465 287.600,377.600 266.067,377.600 223.800 C 377.600 181.533,377.465 160.000,377.200 160.000 C 376.980 160.000,376.800 159.460,376.800 158.800 C 376.800 158.140,376.620 157.600,376.400 157.600 C 376.180 157.600,375.994 157.195,375.987 156.700 C 375.980 156.205,375.710 155.451,375.387 155.024 C 375.064 154.596,374.800 153.921,374.800 153.524 C 374.800 153.126,374.632 152.800,374.427 152.800 C 374.222 152.800,373.944 152.453,373.809 152.029 C 373.474 150.972,368.904 146.400,368.183 146.400 C 367.862 146.400,367.600 146.220,367.600 146.000 C 367.600 145.780,367.317 145.600,366.971 145.600 C 366.626 145.600,366.064 145.321,365.723 144.980 C 365.382 144.640,364.585 144.257,363.952 144.130 C 363.318 144.004,362.800 143.742,362.800 143.550 C 362.800 143.357,362.271 143.200,361.624 143.200 C 360.977 143.200,360.336 143.020,360.200 142.800 C 360.050 142.557,357.129 142.400,352.776 142.400 L 345.600 142.400 345.600 117.600 C 345.600 101.333,345.462 92.800,345.200 92.800 C 344.980 92.800,344.800 92.440,344.800 92.000 C 344.800 91.560,344.650 91.200,344.468 91.200 C 344.285 91.200,343.880 90.712,343.568 90.116 C 342.988 89.009,341.617 87.355,339.300 84.967 C 338.585 84.230,338.000 83.472,338.000 83.284 C 338.000 83.095,336.740 81.643,335.200 80.056 C 333.660 78.470,332.400 77.079,332.400 76.966 C 332.400 76.854,331.140 75.519,329.600 74.000 C 328.060 72.481,326.800 71.056,326.800 70.833 C 326.800 70.435,325.694 69.112,322.700 65.929 C 321.875 65.052,321.200 64.194,321.200 64.022 C 321.200 63.850,320.030 62.511,318.600 61.045 C 317.170 59.579,316.000 58.286,316.000 58.171 C 316.000 58.056,314.740 56.719,313.200 55.200 C 311.660 53.681,310.400 52.242,310.400 52.001 C 310.400 51.761,309.995 51.153,309.500 50.650 C 309.005 50.148,307.700 48.676,306.600 47.380 C 305.500 46.083,303.475 43.893,302.100 42.513 C 300.725 41.132,299.600 39.836,299.600 39.632 C 299.600 39.428,298.340 37.986,296.800 36.428 C 295.260 34.869,294.000 33.453,294.000 33.281 C 294.000 33.109,293.266 32.165,292.369 31.184 C 291.473 30.203,290.168 28.699,289.469 27.841 C 288.771 26.984,287.075 25.142,285.700 23.749 C 284.325 22.355,283.200 21.045,283.200 20.838 C 283.200 20.631,281.940 19.186,280.400 17.628 C 278.860 16.069,277.600 14.616,277.600 14.397 C 277.600 14.179,277.420 14.000,277.200 14.000 C 276.980 14.000,276.800 13.819,276.800 13.598 C 276.800 13.377,275.765 12.102,274.500 10.765 C 273.235 9.428,272.041 8.053,271.848 7.709 C 271.654 7.365,269.946 5.535,268.053 3.642 L 264.611 0.200 165.006 0.158 C 110.223 0.135,64.905 0.192,64.300 0.285 M251.200 56.576 C 251.200 82.663,251.338 96.438,251.600 96.600 C 251.820 96.736,252.000 97.379,252.000 98.029 C 252.000 99.912,254.771 103.600,256.187 103.600 C 256.524 103.600,256.800 103.780,256.800 104.000 C 256.800 104.264,269.000 104.400,292.600 104.400 L 328.400 104.400 328.400 123.400 L 328.400 142.400 200.000 142.400 L 71.600 142.400 71.600 79.600 L 71.600 16.800 161.400 16.800 L 251.200 16.800 251.200 56.576 M104.400 163.200 C 104.400 163.422,105.467 163.600,106.800 163.600 C 108.133 163.600,109.200 163.778,109.200 164.000 C 109.200 164.220,110.190 164.400,111.400 164.400 C 112.610 164.400,113.600 164.580,113.600 164.800 C 113.600 165.020,114.140 165.200,114.800 165.200 C 115.460 165.200,116.000 165.380,116.000 165.600 C 116.000 165.820,116.720 166.000,117.600 166.000 C 118.480 166.000,119.200 166.180,119.200 166.400 C 119.200 166.620,119.549 166.800,119.976 166.800 C 120.403 166.800,120.864 166.980,121.000 167.200 C 121.136 167.420,121.687 167.600,122.224 167.600 C 122.761 167.600,123.200 167.780,123.200 168.000 C 123.200 168.220,123.560 168.400,124.000 168.400 C 124.440 168.400,124.800 168.580,124.800 168.800 C 124.800 169.020,124.620 169.200,124.400 169.200 C 124.180 169.200,124.000 169.740,124.000 170.400 C 124.000 171.060,123.820 171.600,123.600 171.600 C 123.380 171.600,123.200 172.320,123.200 173.200 C 123.200 174.080,123.020 174.800,122.800 174.800 C 122.580 174.800,122.400 175.430,122.400 176.200 C 122.400 176.970,122.220 177.600,122.000 177.600 C 121.780 177.600,121.600 178.129,121.600 178.776 C 121.600 179.423,121.420 180.064,121.200 180.200 C 120.980 180.336,120.800 181.067,120.800 181.824 C 120.800 182.581,120.620 183.200,120.400 183.200 C 120.180 183.200,120.000 183.920,120.000 184.800 C 120.000 185.680,119.820 186.400,119.600 186.400 C 119.380 186.400,119.200 186.760,119.200 187.200 C 119.200 188.028,118.235 188.304,117.800 187.600 C 117.664 187.380,117.203 187.200,116.776 187.200 C 116.349 187.200,116.000 187.020,116.000 186.800 C 116.000 186.580,115.460 186.400,114.800 186.400 C 114.140 186.400,113.600 186.220,113.600 186.000 C 113.600 185.780,113.060 185.600,112.400 185.600 C 111.740 185.600,111.200 185.420,111.200 185.200 C 111.200 184.980,110.480 184.800,109.600 184.800 C 108.720 184.800,108.000 184.620,108.000 184.400 C 108.000 184.180,107.226 184.000,106.280 184.000 C 105.334 184.000,104.372 183.812,104.143 183.583 C 103.264 182.704,85.600 183.524,85.600 184.444 C 85.600 184.640,85.184 184.800,84.675 184.800 C 84.167 184.800,83.364 185.160,82.892 185.600 C 82.420 186.040,81.838 186.400,81.599 186.400 C 81.028 186.400,79.200 188.237,79.200 188.810 C 79.200 189.056,78.930 189.527,78.601 189.857 C 78.271 190.186,77.905 190.938,77.787 191.528 C 77.669 192.118,77.389 193.179,77.165 193.887 C 76.885 194.772,76.889 195.419,77.179 195.961 C 77.410 196.393,77.600 197.389,77.600 198.174 C 77.600 198.958,77.780 199.600,78.000 199.600 C 78.220 199.600,78.400 199.886,78.400 200.235 C 78.400 200.997,82.678 205.200,83.454 205.200 C 83.754 205.200,84.000 205.380,84.000 205.600 C 84.000 205.820,84.360 206.000,84.800 206.000 C 85.240 206.000,85.600 206.180,85.600 206.400 C 85.600 206.620,85.960 206.800,86.400 206.800 C 86.840 206.800,87.200 206.980,87.200 207.200 C 87.200 207.420,87.560 207.600,88.000 207.600 C 88.440 207.600,88.800 207.764,88.800 207.965 C 88.800 208.166,89.520 208.451,90.400 208.600 C 91.280 208.749,92.000 209.034,92.000 209.235 C 92.000 209.436,92.450 209.600,93.000 209.600 C 93.550 209.600,94.000 209.780,94.000 210.000 C 94.000 210.220,94.360 210.400,94.800 210.400 C 95.240 210.400,95.600 210.580,95.600 210.800 C 95.600 211.020,96.140 211.200,96.800 211.200 C 97.460 211.200,98.000 211.380,98.000 211.600 C 98.000 211.820,98.360 212.000,98.800 212.000 C 99.240 212.000,99.600 212.180,99.600 212.400 C 99.600 212.620,99.949 212.800,100.376 212.800 C 100.803 212.800,101.264 212.980,101.400 213.200 C 101.536 213.420,102.087 213.600,102.624 213.600 C 103.161 213.600,103.600 213.780,103.600 214.000 C 103.600 214.220,103.960 214.400,104.400 214.400 C 104.840 214.400,105.200 214.580,105.200 214.800 C 105.200 215.020,105.560 215.200,106.000 215.200 C 106.440 215.200,106.800 215.380,106.800 215.600 C 106.800 215.820,107.160 216.000,107.600 216.000 C 108.040 216.000,108.400 216.146,108.400 216.325 C 108.400 216.504,109.030 216.898,109.800 217.200 C 110.570 217.502,111.200 217.896,111.200 218.075 C 111.200 218.254,111.560 218.400,112.000 218.400 C 112.440 218.400,112.800 218.550,112.800 218.732 C 112.800 218.915,113.295 219.320,113.900 219.632 C 114.505 219.945,115.413 220.605,115.918 221.100 C 116.423 221.595,116.993 222.000,117.186 222.000 C 117.510 222.000,119.471 223.696,122.100 226.249 C 122.705 226.837,123.200 227.521,123.200 227.770 C 123.200 228.020,123.560 228.483,124.000 228.800 C 124.440 229.117,124.800 229.675,124.800 230.039 C 124.800 230.404,125.070 230.926,125.400 231.200 C 125.730 231.474,126.000 231.912,126.000 232.174 C 126.000 232.436,126.360 233.395,126.800 234.306 C 127.240 235.216,127.600 236.319,127.600 236.757 C 127.600 237.195,127.780 237.664,128.000 237.800 C 128.220 237.936,128.400 238.667,128.400 239.424 C 128.400 240.181,128.580 240.800,128.800 240.800 C 129.046 240.800,129.200 242.800,129.200 246.000 C 129.200 249.200,129.046 251.200,128.800 251.200 C 128.580 251.200,128.400 252.100,128.400 253.200 C 128.400 254.300,128.220 255.200,128.000 255.200 C 127.780 255.200,127.600 255.740,127.600 256.400 C 127.600 257.060,127.420 257.600,127.200 257.600 C 126.980 257.600,126.800 257.907,126.800 258.282 C 126.800 259.187,124.750 263.600,124.330 263.600 C 124.148 263.600,124.000 263.888,124.000 264.240 C 124.000 264.591,123.460 265.383,122.800 266.000 C 122.140 266.617,121.600 267.323,121.600 267.571 C 121.600 268.157,118.157 271.600,117.571 271.600 C 117.323 271.600,116.617 272.140,116.000 272.800 C 115.383 273.460,114.606 274.000,114.273 274.000 C 113.939 274.000,113.607 274.150,113.533 274.332 C 113.350 274.789,107.413 277.600,106.631 277.600 C 106.284 277.600,106.000 277.780,106.000 278.000 C 106.000 278.220,105.460 278.400,104.800 278.400 C 104.140 278.400,103.600 278.580,103.600 278.800 C 103.600 279.020,103.060 279.200,102.400 279.200 C 101.740 279.200,101.200 279.380,101.200 279.600 C 101.200 279.820,100.480 280.000,99.600 280.000 C 98.720 280.000,98.000 280.180,98.000 280.400 C 98.000 280.620,97.010 280.800,95.800 280.800 C 94.590 280.800,93.600 280.980,93.600 281.200 C 93.600 281.456,89.867 281.600,83.200 281.600 C 76.533 281.600,72.800 281.456,72.800 281.200 C 72.800 280.980,71.821 280.800,70.624 280.800 C 69.427 280.800,68.336 280.620,68.200 280.400 C 68.064 280.180,67.074 280.000,66.000 280.000 C 64.926 280.000,63.936 279.820,63.800 279.600 C 63.664 279.380,63.023 279.200,62.376 279.200 C 61.729 279.200,61.200 279.020,61.200 278.800 C 61.200 278.580,60.808 278.400,60.328 278.400 C 59.250 278.400,57.220 277.754,54.600 276.578 C 53.500 276.085,52.239 275.574,51.797 275.444 C 50.955 275.196,50.809 271.600,51.640 271.600 C 51.838 271.600,52.000 270.880,52.000 270.000 C 52.000 269.120,52.180 268.400,52.400 268.400 C 52.620 268.400,52.800 267.680,52.800 266.800 C 52.800 265.920,52.980 265.200,53.200 265.200 C 53.420 265.200,53.600 264.480,53.600 263.600 C 53.600 262.720,53.780 262.000,54.000 262.000 C 54.220 262.000,54.400 261.280,54.400 260.400 C 54.400 259.520,54.580 258.800,54.800 258.800 C 55.020 258.800,55.200 258.192,55.200 257.449 C 55.200 256.037,56.368 254.518,56.698 255.500 C 56.791 255.775,57.176 256.000,57.553 256.000 C 57.931 256.000,58.411 256.164,58.620 256.365 C 59.129 256.854,65.015 258.800,65.985 258.800 C 66.407 258.800,66.864 258.980,67.000 259.200 C 67.136 259.420,68.047 259.600,69.024 259.600 C 70.001 259.600,70.800 259.780,70.800 260.000 C 70.800 260.220,71.700 260.400,72.800 260.400 C 73.900 260.400,74.800 260.580,74.800 260.800 C 74.800 261.040,76.400 261.200,78.800 261.200 C 81.200 261.200,82.800 261.360,82.800 261.600 C 82.800 261.820,83.610 262.000,84.600 262.000 C 85.590 262.000,86.400 261.820,86.400 261.600 C 86.400 261.369,87.659 261.200,89.376 261.200 C 91.013 261.200,92.464 261.020,92.600 260.800 C 92.736 260.580,93.366 260.400,94.000 260.400 C 94.634 260.400,95.264 260.220,95.400 260.000 C 95.536 259.780,95.997 259.600,96.424 259.600 C 96.851 259.600,97.200 259.420,97.200 259.200 C 97.200 258.980,97.517 258.800,97.904 258.800 C 98.745 258.800,102.000 255.744,102.000 254.954 C 102.000 254.649,102.180 254.400,102.400 254.400 C 102.620 254.400,102.800 254.040,102.800 253.600 C 102.800 253.160,102.980 252.800,103.200 252.800 C 103.442 252.800,103.600 251.067,103.600 248.400 C 103.600 245.733,103.442 244.000,103.200 244.000 C 102.980 244.000,102.800 243.637,102.800 243.193 C 102.800 242.252,97.917 237.200,97.007 237.200 C 96.673 237.200,96.400 237.020,96.400 236.800 C 96.400 236.580,96.164 236.400,95.875 236.400 C 95.587 236.400,94.964 236.040,94.492 235.600 C 94.020 235.160,93.361 234.800,93.029 234.800 C 92.696 234.800,91.783 234.440,91.000 234.000 C 90.217 233.560,89.311 233.200,88.988 233.200 C 88.665 233.200,88.400 233.020,88.400 232.800 C 88.400 232.580,87.950 232.400,87.400 232.400 C 86.850 232.400,86.400 232.220,86.400 232.000 C 86.400 231.780,86.051 231.600,85.624 231.600 C 85.197 231.600,84.736 231.420,84.600 231.200 C 84.464 230.980,83.913 230.800,83.376 230.800 C 82.839 230.800,82.400 230.653,82.400 230.472 C 82.400 230.292,81.500 229.900,80.400 229.600 C 79.300 229.300,78.400 228.908,78.400 228.728 C 78.400 228.547,78.142 228.400,77.827 228.400 C 77.512 228.400,75.648 227.590,73.685 226.600 C 71.722 225.610,69.950 224.800,69.746 224.800 C 69.543 224.800,69.117 224.440,68.800 224.000 C 68.483 223.560,67.943 223.200,67.600 223.200 C 67.257 223.200,66.717 222.840,66.400 222.400 C 66.083 221.960,65.585 221.600,65.295 221.600 C 64.771 221.600,59.064 216.013,58.099 214.556 C 56.867 212.695,55.350 210.100,54.851 209.000 C 54.552 208.340,54.148 207.487,53.953 207.105 C 53.759 206.723,53.600 205.958,53.600 205.405 C 53.600 204.852,53.420 204.400,53.200 204.400 C 52.980 204.400,52.800 203.421,52.800 202.224 C 52.800 201.027,52.620 199.936,52.400 199.800 C 52.180 199.664,52.000 198.123,52.000 196.376 C 52.000 194.525,52.167 193.200,52.400 193.200 C 52.620 193.200,52.800 192.401,52.800 191.424 C 52.800 190.447,52.980 189.536,53.200 189.400 C 53.420 189.264,53.600 188.724,53.600 188.200 C 53.600 187.676,53.780 187.136,54.000 187.000 C 54.220 186.864,54.400 186.313,54.400 185.776 C 54.400 185.239,54.580 184.800,54.800 184.800 C 55.020 184.800,55.200 184.440,55.200 184.000 C 55.200 183.560,55.380 183.200,55.600 183.200 C 55.820 183.200,56.000 182.840,56.000 182.400 C 56.000 181.960,56.158 181.600,56.351 181.600 C 56.545 181.600,56.927 181.060,57.200 180.400 C 57.473 179.740,57.821 179.200,57.972 179.200 C 58.123 179.200,58.544 178.525,58.908 177.699 C 59.273 176.873,59.957 175.928,60.430 175.599 C 60.902 175.270,61.828 174.505,62.487 173.900 C 63.145 173.295,63.818 172.800,63.980 172.800 C 64.143 172.800,64.799 172.350,65.438 171.800 C 66.077 171.251,66.743 170.801,66.917 170.800 C 67.091 170.800,67.620 170.440,68.092 170.000 C 68.564 169.560,69.187 169.200,69.475 169.200 C 69.764 169.200,70.000 169.020,70.000 168.800 C 70.000 168.580,70.360 168.400,70.800 168.400 C 71.240 168.400,71.600 168.220,71.600 168.000 C 71.600 167.780,72.050 167.600,72.600 167.600 C 73.150 167.600,73.600 167.420,73.600 167.200 C 73.600 166.980,73.960 166.800,74.400 166.800 C 74.840 166.800,75.200 166.620,75.200 166.400 C 75.200 166.180,75.560 166.000,76.000 166.000 C 76.440 166.000,76.800 165.820,76.800 165.600 C 76.800 165.380,77.520 165.200,78.400 165.200 C 79.280 165.200,80.000 165.020,80.000 164.800 C 80.000 164.580,80.799 164.400,81.776 164.400 C 82.753 164.400,83.664 164.220,83.800 164.000 C 83.936 163.780,85.016 163.600,86.200 163.600 C 87.384 163.600,88.464 163.420,88.600 163.200 C 88.751 162.956,91.871 162.800,96.624 162.800 C 101.541 162.800,104.400 162.947,104.400 163.200 M329.600 164.000 C 329.600 164.226,330.733 164.400,332.200 164.400 C 333.667 164.400,334.800 164.574,334.800 164.800 C 334.800 165.022,335.867 165.200,337.200 165.200 C 338.533 165.200,339.600 165.378,339.600 165.600 C 339.600 165.820,340.219 166.000,340.976 166.000 C 341.733 166.000,342.464 166.180,342.600 166.400 C 342.736 166.620,343.467 166.800,344.224 166.800 C 344.981 166.800,345.600 166.980,345.600 167.200 C 345.600 167.420,345.949 167.600,346.376 167.600 C 346.803 167.600,347.264 167.780,347.400 168.000 C 347.536 168.220,348.009 168.400,348.452 168.400 C 349.432 168.400,350.584 169.439,350.003 169.798 C 349.781 169.935,349.600 170.566,349.600 171.200 C 349.600 171.834,349.420 172.464,349.200 172.600 C 348.980 172.736,348.800 173.467,348.800 174.224 C 348.800 174.981,348.620 175.600,348.400 175.600 C 348.180 175.600,348.000 176.219,348.000 176.976 C 348.000 177.733,347.820 178.464,347.600 178.600 C 347.380 178.736,347.200 179.467,347.200 180.224 C 347.200 180.981,347.020 181.600,346.800 181.600 C 346.580 181.600,346.400 182.320,346.400 183.200 C 346.400 184.080,346.220 184.800,346.000 184.800 C 345.780 184.800,345.600 185.235,345.600 185.767 C 345.600 187.504,345.191 188.000,343.757 188.000 C 343.011 188.000,342.400 187.820,342.400 187.600 C 342.400 187.380,341.950 187.200,341.400 187.200 C 340.850 187.200,340.400 187.020,340.400 186.800 C 340.400 186.580,339.770 186.400,339.000 186.400 C 338.230 186.400,337.600 186.220,337.600 186.000 C 337.600 185.780,336.790 185.600,335.800 185.600 C 334.810 185.600,334.000 185.420,334.000 185.200 C 334.000 184.978,332.941 184.800,331.624 184.800 C 330.317 184.800,329.136 184.620,329.000 184.400 C 328.847 184.152,325.196 184.000,319.376 184.000 C 313.392 184.000,310.000 184.145,310.000 184.400 C 310.000 184.620,309.280 184.800,308.400 184.800 C 307.520 184.800,306.800 184.980,306.800 185.200 C 306.800 185.420,306.080 185.600,305.200 185.600 C 304.320 185.600,303.600 185.780,303.600 186.000 C 303.600 186.220,303.060 186.400,302.400 186.400 C 301.740 186.400,301.200 186.580,301.200 186.800 C 301.200 187.020,300.840 187.200,300.400 187.200 C 299.960 187.200,299.600 187.380,299.600 187.600 C 299.600 187.820,299.150 188.000,298.600 188.000 C 298.050 188.000,297.600 188.180,297.600 188.400 C 297.600 188.620,297.190 188.800,296.688 188.800 C 296.187 188.800,295.517 189.160,295.200 189.600 C 294.883 190.040,294.393 190.400,294.112 190.400 C 293.830 190.400,293.600 190.580,293.600 190.800 C 293.600 191.020,293.330 191.200,293.000 191.200 C 292.670 191.200,292.400 191.375,292.400 191.590 C 292.400 191.804,291.838 192.270,291.151 192.625 C 289.727 193.362,287.200 195.767,287.200 196.387 C 287.200 196.614,287.020 196.800,286.800 196.800 C 286.580 196.800,286.400 197.030,286.400 197.312 C 286.400 197.593,286.040 198.083,285.600 198.400 C 285.160 198.717,284.800 199.257,284.800 199.600 C 284.800 199.943,284.440 200.483,284.000 200.800 C 283.560 201.117,283.200 201.609,283.200 201.894 C 283.200 202.397,283.017 202.849,282.062 204.695 C 281.808 205.187,281.600 205.862,281.600 206.195 C 281.600 206.528,281.420 206.800,281.200 206.800 C 280.980 206.800,280.800 207.329,280.800 207.976 C 280.800 208.623,280.620 209.264,280.400 209.400 C 280.180 209.536,280.000 210.357,280.000 211.224 C 280.000 212.091,279.820 212.800,279.600 212.800 C 279.359 212.800,279.200 214.440,279.200 216.920 C 279.200 219.538,279.029 221.211,278.731 221.509 C 278.372 221.868,278.372 222.220,278.731 223.008 C 278.989 223.574,279.200 225.819,279.200 227.995 C 279.200 230.202,279.377 232.062,279.600 232.200 C 279.820 232.336,280.000 232.977,280.000 233.624 C 280.000 234.271,280.180 234.800,280.400 234.800 C 280.620 234.800,280.800 235.520,280.800 236.400 C 280.800 237.280,280.980 238.000,281.200 238.000 C 281.420 238.000,281.600 238.324,281.600 238.720 C 281.600 239.614,282.494 241.593,282.900 241.597 C 283.065 241.599,283.200 241.960,283.200 242.400 C 283.200 242.840,283.380 243.200,283.600 243.200 C 283.820 243.200,284.000 243.560,284.000 244.000 C 284.000 244.440,284.180 244.800,284.400 244.800 C 284.620 244.800,284.800 245.088,284.800 245.440 C 284.800 245.791,285.340 246.583,286.000 247.200 C 286.660 247.817,287.200 248.523,287.200 248.769 C 287.200 249.217,291.381 253.600,291.809 253.600 C 291.933 253.600,292.522 254.057,293.117 254.615 C 294.326 255.747,300.327 258.800,301.345 258.800 C 301.705 258.800,302.000 258.980,302.000 259.200 C 302.000 259.420,302.720 259.600,303.600 259.600 C 304.480 259.600,305.200 259.780,305.200 260.000 C 305.200 260.220,305.920 260.400,306.800 260.400 C 307.680 260.400,308.400 260.580,308.400 260.800 C 308.400 261.055,311.600 261.200,317.200 261.200 C 322.800 261.200,326.000 261.055,326.000 260.800 C 326.000 260.580,326.643 260.400,327.429 260.400 C 330.041 260.400,330.000 260.619,330.000 246.629 L 330.000 234.000 321.000 234.000 L 312.000 234.000 312.000 224.200 L 312.000 214.400 333.200 214.400 L 354.400 214.400 354.400 244.717 L 354.400 275.035 351.900 275.575 C 350.525 275.872,349.220 276.247,349.000 276.407 C 348.589 276.708,346.939 277.079,344.300 277.465 C 343.475 277.585,342.800 277.827,342.800 278.002 C 342.800 278.310,341.236 278.588,336.900 279.050 C 335.745 279.173,334.800 279.437,334.800 279.637 C 334.800 279.837,333.641 280.000,332.224 280.000 C 330.807 280.000,329.536 280.180,329.400 280.400 C 329.258 280.630,327.137 280.800,324.400 280.800 C 321.663 280.800,319.542 280.970,319.400 281.200 C 319.259 281.429,317.204 281.600,314.600 281.600 C 311.996 281.600,309.941 281.429,309.800 281.200 C 309.664 280.979,307.870 280.800,305.800 280.800 C 303.730 280.800,301.936 280.621,301.800 280.400 C 301.664 280.180,300.573 280.000,299.376 280.000 C 298.179 280.000,297.200 279.820,297.200 279.600 C 297.200 279.380,296.491 279.200,295.624 279.200 C 294.757 279.200,293.936 279.020,293.800 278.800 C 293.664 278.580,292.933 278.400,292.176 278.400 C 291.419 278.400,290.800 278.220,290.800 278.000 C 290.800 277.780,290.448 277.600,290.019 277.600 C 289.282 277.600,288.700 277.404,285.800 276.182 C 285.140 275.903,283.840 275.452,282.911 275.178 C 281.982 274.904,280.865 274.347,280.428 273.940 C 279.991 273.533,279.356 273.200,279.017 273.200 C 278.678 273.200,278.400 273.020,278.400 272.800 C 278.400 272.580,278.080 272.400,277.688 272.400 C 277.297 272.400,276.717 272.040,276.400 271.600 C 276.083 271.160,275.593 270.800,275.312 270.800 C 275.030 270.800,274.800 270.620,274.800 270.400 C 274.800 270.180,274.530 270.000,274.200 270.000 C 273.870 270.000,273.600 269.820,273.600 269.600 C 273.600 269.380,273.418 269.200,273.195 269.200 C 272.757 269.200,264.400 260.979,264.400 260.548 C 264.400 260.404,263.860 259.771,263.200 259.140 C 262.540 258.509,262.000 257.764,262.000 257.485 C 262.000 257.205,261.640 256.717,261.200 256.400 C 260.760 256.083,260.400 255.503,260.400 255.112 C 260.400 254.720,260.220 254.400,260.000 254.400 C 259.780 254.400,259.600 254.040,259.600 253.600 C 259.600 253.160,259.420 252.800,259.200 252.800 C 258.980 252.800,258.799 252.485,258.798 252.100 C 258.797 251.715,258.347 250.514,257.798 249.432 C 257.249 248.350,256.800 247.146,256.800 246.756 C 256.800 246.366,256.620 245.936,256.400 245.800 C 256.180 245.664,256.000 245.201,256.000 244.771 C 256.000 244.341,255.842 243.677,255.649 243.295 C 254.978 241.965,254.400 239.735,254.400 238.472 C 254.400 237.772,254.220 237.200,254.000 237.200 C 253.778 237.200,253.600 236.141,253.600 234.824 C 253.600 233.517,253.420 232.336,253.200 232.200 C 252.955 232.049,252.800 228.863,252.800 223.976 C 252.800 218.925,252.947 216.000,253.200 216.000 C 253.425 216.000,253.600 214.875,253.600 213.424 C 253.600 212.007,253.780 210.736,254.000 210.600 C 254.220 210.464,254.400 209.744,254.400 209.000 C 254.400 208.256,254.580 207.536,254.800 207.400 C 255.020 207.264,255.200 206.634,255.200 206.000 C 255.200 205.366,255.344 204.758,255.521 204.649 C 255.697 204.540,256.093 203.528,256.400 202.400 C 256.707 201.272,257.103 200.260,257.279 200.151 C 257.456 200.042,257.600 199.513,257.600 198.976 C 257.600 198.439,257.764 198.000,257.965 198.000 C 258.166 198.000,258.451 197.280,258.600 196.400 C 258.749 195.520,259.034 194.800,259.235 194.800 C 259.436 194.800,259.600 194.480,259.600 194.088 C 259.600 193.697,259.960 193.117,260.400 192.800 C 260.840 192.483,261.200 191.993,261.200 191.712 C 261.200 191.430,261.380 191.200,261.600 191.200 C 261.820 191.200,262.000 190.930,262.000 190.600 C 262.000 190.270,262.180 190.000,262.400 190.000 C 262.620 190.000,262.800 189.730,262.800 189.400 C 262.800 189.070,262.941 188.800,263.114 188.800 C 263.286 188.800,263.753 188.249,264.151 187.576 C 264.880 186.341,273.358 177.600,273.827 177.600 C 273.966 177.600,274.583 177.060,275.200 176.400 C 275.817 175.740,276.596 175.200,276.932 175.200 C 277.268 175.200,277.781 174.975,278.071 174.700 C 278.362 174.425,279.095 173.945,279.700 173.632 C 280.305 173.320,280.800 172.915,280.800 172.732 C 280.800 172.550,281.160 172.400,281.600 172.400 C 282.040 172.400,282.400 172.220,282.400 172.000 C 282.400 171.780,282.760 171.600,283.200 171.600 C 283.640 171.600,284.000 171.420,284.000 171.200 C 284.000 170.980,284.360 170.800,284.800 170.800 C 285.240 170.800,285.600 170.620,285.600 170.400 C 285.600 170.180,285.872 170.000,286.205 170.000 C 286.538 170.000,287.168 169.820,287.605 169.600 C 288.042 169.380,288.758 169.020,289.195 168.800 C 289.632 168.580,290.352 168.400,290.795 168.400 C 291.238 168.400,291.600 168.220,291.600 168.000 C 291.600 167.780,292.140 167.600,292.800 167.600 C 293.460 167.600,294.000 167.420,294.000 167.200 C 294.000 166.980,294.540 166.800,295.200 166.800 C 295.860 166.800,296.400 166.620,296.400 166.400 C 296.400 166.180,297.120 166.000,298.000 166.000 C 298.880 166.000,299.600 165.820,299.600 165.600 C 299.600 165.380,300.500 165.200,301.600 165.200 C 302.700 165.200,303.600 165.020,303.600 164.800 C 303.600 164.574,304.733 164.400,306.200 164.400 C 307.667 164.400,308.800 164.226,308.800 164.000 C 308.800 163.744,312.533 163.600,319.200 163.600 C 325.867 163.600,329.600 163.744,329.600 164.000 M166.800 165.576 C 166.800 166.223,166.980 166.864,167.200 167.000 C 167.420 167.136,167.600 167.867,167.600 168.624 C 167.600 169.381,167.780 170.000,168.000 170.000 C 168.220 170.000,168.400 170.540,168.400 171.200 C 168.400 171.860,168.580 172.400,168.800 172.400 C 169.020 172.400,169.200 173.030,169.200 173.800 C 169.200 174.570,169.380 175.200,169.600 175.200 C 169.820 175.200,170.000 175.740,170.000 176.400 C 170.000 177.060,170.180 177.600,170.400 177.600 C 170.620 177.600,170.800 178.320,170.800 179.200 C 170.800 180.080,170.980 180.800,171.200 180.800 C 171.420 180.800,171.600 181.340,171.600 182.000 C 171.600 182.660,171.780 183.200,172.000 183.200 C 172.220 183.200,172.400 183.920,172.400 184.800 C 172.400 185.680,172.580 186.400,172.800 186.400 C 173.020 186.400,173.200 186.940,173.200 187.600 C 173.200 188.260,173.380 188.800,173.600 188.800 C 173.820 188.800,174.000 189.430,174.000 190.200 C 174.000 190.970,174.180 191.600,174.400 191.600 C 174.620 191.600,174.800 191.993,174.800 192.474 C 174.800 193.632,175.935 198.414,176.418 199.295 C 176.628 199.677,176.800 200.431,176.800 200.971 C 176.800 201.511,176.980 202.064,177.200 202.200 C 177.420 202.336,177.600 202.966,177.600 203.600 C 177.600 204.234,177.780 204.864,178.000 205.000 C 178.220 205.136,178.400 205.766,178.400 206.400 C 178.400 207.034,178.580 207.664,178.800 207.800 C 179.020 207.936,179.200 208.577,179.200 209.224 C 179.200 209.871,179.360 210.400,179.556 210.400 C 179.752 210.400,180.022 211.030,180.156 211.800 C 180.290 212.570,180.510 213.830,180.644 214.600 C 180.778 215.370,181.048 216.000,181.244 216.000 C 181.440 216.000,181.600 216.619,181.600 217.376 C 181.600 218.133,181.780 218.864,182.000 219.000 C 182.220 219.136,182.400 219.777,182.400 220.424 C 182.400 221.071,182.580 221.600,182.800 221.600 C 183.020 221.600,183.200 222.219,183.200 222.976 C 183.200 223.733,183.380 224.464,183.600 224.600 C 183.820 224.736,184.000 225.467,184.000 226.224 C 184.000 226.981,184.180 227.600,184.400 227.600 C 184.620 227.600,184.800 228.140,184.800 228.800 C 184.800 229.460,184.980 230.000,185.200 230.000 C 185.420 230.000,185.600 230.720,185.600 231.600 C 185.600 232.480,185.780 233.200,186.000 233.200 C 186.220 233.200,186.400 233.920,186.400 234.800 C 186.400 235.680,186.580 236.400,186.800 236.400 C 187.020 236.400,187.200 237.109,187.200 237.976 C 187.200 238.843,187.380 239.664,187.600 239.800 C 187.820 239.936,188.000 240.757,188.000 241.624 C 188.000 242.491,188.180 243.200,188.400 243.200 C 188.620 243.200,188.800 243.909,188.800 244.776 C 188.800 245.643,188.980 246.464,189.200 246.600 C 189.420 246.736,189.600 247.647,189.600 248.624 C 189.600 249.601,189.780 250.400,190.000 250.400 C 190.220 250.400,190.400 251.120,190.400 252.000 C 190.400 252.880,190.580 253.600,190.800 253.600 C 191.020 253.600,191.200 254.140,191.200 254.800 C 191.200 255.813,191.356 256.000,192.200 256.000 C 193.044 256.000,193.200 255.813,193.200 254.800 C 193.200 254.140,193.380 253.600,193.600 253.600 C 193.820 253.600,194.000 252.790,194.000 251.800 C 194.000 250.810,194.180 250.000,194.400 250.000 C 194.620 250.000,194.800 249.190,194.800 248.200 C 194.800 247.210,194.980 246.400,195.200 246.400 C 195.420 246.400,195.600 245.680,195.600 244.800 C 195.600 243.920,195.780 243.200,196.000 243.200 C 196.220 243.200,196.400 242.480,196.400 241.600 C 196.400 240.720,196.580 240.000,196.800 240.000 C 197.020 240.000,197.200 239.291,197.200 238.424 C 197.200 237.557,197.380 236.736,197.600 236.600 C 197.820 236.464,198.000 235.744,198.000 235.000 C 198.000 234.256,198.180 233.536,198.400 233.400 C 198.620 233.264,198.800 232.623,198.800 231.976 C 198.800 231.329,198.980 230.800,199.200 230.800 C 199.420 230.800,199.600 230.080,199.600 229.200 C 199.600 228.320,199.780 227.600,200.000 227.600 C 200.220 227.600,200.400 227.060,200.400 226.400 C 200.400 225.740,200.580 225.200,200.800 225.200 C 201.020 225.200,201.200 224.570,201.200 223.800 C 201.200 223.030,201.380 222.400,201.600 222.400 C 201.820 222.400,202.000 221.781,202.000 221.024 C 202.000 220.267,202.180 219.536,202.400 219.400 C 202.620 219.264,202.800 218.623,202.800 217.976 C 202.800 217.329,202.980 216.800,203.200 216.800 C 203.420 216.800,203.600 216.181,203.600 215.424 C 203.600 214.667,203.780 213.936,204.000 213.800 C 204.220 213.664,204.400 213.023,204.400 212.376 C 204.400 211.729,204.580 211.200,204.800 211.200 C 205.020 211.200,205.200 210.671,205.200 210.024 C 205.200 209.377,205.380 208.736,205.600 208.600 C 205.820 208.464,206.000 207.834,206.000 207.200 C 206.000 206.566,206.180 205.936,206.400 205.800 C 206.620 205.664,206.800 205.201,206.800 204.771 C 206.800 204.341,206.958 203.677,207.151 203.295 C 207.768 202.073,208.354 199.860,208.632 197.700 C 208.781 196.545,209.060 195.600,209.252 195.600 C 209.443 195.600,209.600 195.060,209.600 194.400 C 209.600 193.740,209.780 193.200,210.000 193.200 C 210.220 193.200,210.400 192.570,210.400 191.800 C 210.400 191.030,210.580 190.400,210.800 190.400 C 211.020 190.400,211.200 189.860,211.200 189.200 C 211.200 188.540,211.380 188.000,211.600 188.000 C 211.820 188.000,212.000 187.471,212.000 186.824 C 212.000 186.177,212.180 185.536,212.400 185.400 C 212.620 185.264,212.800 184.533,212.800 183.776 C 212.800 183.019,212.980 182.400,213.200 182.400 C 213.420 182.400,213.600 181.860,213.600 181.200 C 213.600 180.540,213.780 180.000,214.000 180.000 C 214.220 180.000,214.400 179.460,214.400 178.800 C 214.400 178.140,214.580 177.600,214.800 177.600 C 215.020 177.600,215.200 176.981,215.200 176.224 C 215.200 175.467,215.380 174.736,215.600 174.600 C 215.820 174.464,216.000 173.924,216.000 173.400 C 216.000 172.876,216.180 172.336,216.400 172.200 C 216.620 172.064,216.800 171.524,216.800 171.000 C 216.800 170.476,216.980 169.936,217.200 169.800 C 217.420 169.664,217.600 168.933,217.600 168.176 C 217.600 167.419,217.780 166.800,218.000 166.800 C 218.220 166.800,218.400 166.260,218.400 165.600 L 218.400 164.400 231.600 164.400 C 244.831 164.400,246.389 164.570,244.400 165.800 C 244.180 165.936,244.000 166.399,244.000 166.829 C 244.000 167.259,243.826 167.923,243.613 168.305 C 243.029 169.351,242.000 172.724,242.000 173.590 C 242.000 174.010,241.820 174.464,241.600 174.600 C 241.380 174.736,241.200 175.377,241.200 176.024 C 241.200 176.671,241.020 177.200,240.800 177.200 C 240.580 177.200,240.400 177.639,240.400 178.176 C 240.400 178.713,240.220 179.264,240.000 179.400 C 239.780 179.536,239.600 180.087,239.600 180.624 C 239.600 181.161,239.420 181.600,239.200 181.600 C 238.980 181.600,238.800 182.140,238.800 182.800 C 238.800 183.460,238.620 184.000,238.400 184.000 C 238.180 184.000,238.000 184.540,238.000 185.200 C 238.000 185.860,237.820 186.400,237.600 186.400 C 237.380 186.400,237.200 186.940,237.200 187.600 C 237.200 188.260,237.020 188.800,236.800 188.800 C 236.580 188.800,236.400 189.340,236.400 190.000 C 236.400 190.660,236.220 191.200,236.000 191.200 C 235.780 191.200,235.600 191.639,235.600 192.176 C 235.600 192.713,235.420 193.264,235.200 193.400 C 234.980 193.536,234.800 194.087,234.800 194.624 C 234.800 195.161,234.620 195.600,234.400 195.600 C 234.180 195.600,234.000 196.140,234.000 196.800 C 234.000 197.460,233.820 198.000,233.600 198.000 C 233.380 198.000,233.200 198.540,233.200 199.200 C 233.200 199.860,233.020 200.400,232.800 200.400 C 232.580 200.400,232.400 200.940,232.400 201.600 C 232.400 202.260,232.220 202.800,232.000 202.800 C 231.780 202.800,231.600 203.340,231.600 204.000 C 231.600 204.660,231.420 205.200,231.200 205.200 C 230.980 205.200,230.800 205.740,230.800 206.400 C 230.800 207.060,230.620 207.600,230.400 207.600 C 230.180 207.600,230.000 208.039,230.000 208.576 C 230.000 209.113,229.820 209.664,229.600 209.800 C 229.380 209.936,229.200 210.476,229.200 211.000 C 229.200 211.524,229.020 212.064,228.800 212.200 C 228.580 212.336,228.400 212.887,228.400 213.424 C 228.400 213.961,228.220 214.400,228.000 214.400 C 227.780 214.400,227.600 214.940,227.600 215.600 C 227.600 216.260,227.420 216.800,227.200 216.800 C 226.980 216.800,226.800 217.252,226.800 217.805 C 226.800 218.358,226.637 219.123,226.437 219.505 C 225.895 220.542,224.800 224.382,224.800 225.246 C 224.800 225.661,224.620 226.000,224.400 226.000 C 224.180 226.000,224.000 226.540,224.000 227.200 C 224.000 227.860,223.820 228.400,223.600 228.400 C 223.380 228.400,223.200 228.940,223.200 229.600 C 223.200 230.260,223.020 230.800,222.800 230.800 C 222.580 230.800,222.400 231.239,222.400 231.776 C 222.400 232.313,222.220 232.864,222.000 233.000 C 221.780 233.136,221.600 233.599,221.600 234.029 C 221.600 234.459,221.420 235.168,221.200 235.605 C 220.980 236.042,220.620 236.758,220.400 237.195 C 220.180 237.632,220.000 238.341,220.000 238.771 C 220.000 239.201,219.820 239.664,219.600 239.800 C 219.380 239.936,219.200 240.476,219.200 241.000 C 219.200 241.524,219.020 242.064,218.800 242.200 C 218.580 242.336,218.400 242.887,218.400 243.424 C 218.400 243.961,218.220 244.400,218.000 244.400 C 217.780 244.400,217.600 244.839,217.600 245.376 C 217.600 245.913,217.420 246.464,217.200 246.600 C 216.980 246.736,216.800 247.276,216.800 247.800 C 216.800 248.324,216.620 248.864,216.400 249.000 C 216.180 249.136,216.000 249.676,216.000 250.200 C 216.000 250.724,215.820 251.264,215.600 251.400 C 215.380 251.536,215.200 252.087,215.200 252.624 C 215.200 253.161,215.020 253.600,214.800 253.600 C 214.580 253.600,214.400 254.140,214.400 254.800 C 214.400 255.460,214.220 256.000,214.000 256.000 C 213.780 256.000,213.600 256.540,213.600 257.200 C 213.600 257.860,213.420 258.400,213.200 258.400 C 212.980 258.400,212.800 258.839,212.800 259.376 C 212.800 259.913,212.620 260.464,212.400 260.600 C 212.180 260.736,212.000 261.276,212.000 261.800 C 212.000 262.324,211.820 262.864,211.600 263.000 C 211.380 263.136,211.200 263.676,211.200 264.200 C 211.200 264.724,211.020 265.264,210.800 265.400 C 210.580 265.536,210.400 265.999,210.400 266.429 C 210.400 266.859,210.237 267.523,210.037 267.905 C 209.440 269.047,208.400 272.822,208.400 273.846 C 208.400 274.371,208.220 274.800,208.000 274.800 C 207.780 274.800,207.600 275.250,207.600 275.800 C 207.600 276.350,207.420 276.800,207.200 276.800 C 206.980 276.800,206.800 277.263,206.800 277.829 C 206.800 280.013,206.898 280.000,190.829 280.000 C 176.267 280.000,176.000 279.986,176.000 279.200 C 176.000 278.760,175.820 278.400,175.600 278.400 C 175.380 278.400,175.200 277.872,175.200 277.228 C 175.200 276.087,173.487 270.099,172.761 268.705 C 172.563 268.323,172.400 267.659,172.400 267.229 C 172.400 266.799,172.220 266.336,172.000 266.200 C 171.780 266.064,171.600 265.423,171.600 264.776 C 171.600 264.129,171.420 263.600,171.200 263.600 C 170.980 263.600,170.800 263.161,170.800 262.624 C 170.800 262.087,170.620 261.536,170.400 261.400 C 170.180 261.264,170.000 260.801,170.000 260.371 C 170.000 259.941,169.838 259.277,169.639 258.895 C 169.440 258.513,169.063 257.390,168.800 256.400 C 168.537 255.410,168.160 254.287,167.961 253.905 C 167.762 253.523,167.600 252.758,167.600 252.205 C 167.600 251.652,167.420 251.200,167.200 251.200 C 166.980 251.200,166.800 250.660,166.800 250.000 C 166.800 249.340,166.620 248.800,166.400 248.800 C 166.180 248.800,166.000 248.260,166.000 247.600 C 166.000 246.940,165.820 246.400,165.600 246.400 C 165.380 246.400,165.200 245.860,165.200 245.200 C 165.200 244.540,165.020 244.000,164.800 244.000 C 164.580 244.000,164.400 243.550,164.400 243.000 C 164.400 242.450,164.220 242.000,164.000 242.000 C 163.780 242.000,163.600 241.460,163.600 240.800 C 163.600 240.140,163.420 239.600,163.200 239.600 C 162.980 239.600,162.800 239.071,162.800 238.424 C 162.800 237.777,162.620 237.136,162.400 237.000 C 162.180 236.864,162.000 236.234,162.000 235.600 C 162.000 234.966,161.820 234.336,161.600 234.200 C 161.380 234.064,161.200 233.423,161.200 232.776 C 161.200 232.129,161.020 231.600,160.800 231.600 C 160.580 231.600,160.400 231.060,160.400 230.400 C 160.400 229.740,160.220 229.200,160.000 229.200 C 159.780 229.200,159.600 228.660,159.600 228.000 C 159.600 227.340,159.437 226.800,159.238 226.800 C 159.038 226.800,158.751 225.900,158.600 224.800 C 158.449 223.701,158.162 222.700,157.963 222.577 C 157.763 222.454,157.600 221.924,157.600 221.400 C 157.600 220.876,157.420 220.336,157.200 220.200 C 156.980 220.064,156.800 219.423,156.800 218.776 C 156.800 218.129,156.620 217.600,156.400 217.600 C 156.180 217.600,156.000 217.071,156.000 216.424 C 156.000 215.777,155.820 215.136,155.600 215.000 C 155.380 214.864,155.200 214.324,155.200 213.800 C 155.200 213.276,155.020 212.736,154.800 212.600 C 154.580 212.464,154.400 211.823,154.400 211.176 C 154.400 210.529,154.220 210.000,154.000 210.000 C 153.780 210.000,153.600 209.460,153.600 208.800 C 153.600 208.140,153.420 207.600,153.200 207.600 C 152.980 207.600,152.800 207.060,152.800 206.400 C 152.800 205.740,152.620 205.200,152.400 205.200 C 152.180 205.200,152.000 204.660,152.000 204.000 C 152.000 203.340,151.820 202.800,151.600 202.800 C 151.380 202.800,151.200 202.260,151.200 201.600 C 151.200 200.940,151.020 200.400,150.800 200.400 C 150.580 200.400,150.400 199.860,150.400 199.200 C 150.400 198.540,150.220 198.000,150.000 198.000 C 149.780 198.000,149.600 197.471,149.600 196.824 C 149.600 196.177,149.420 195.536,149.200 195.400 C 148.980 195.264,148.800 194.623,148.800 193.976 C 148.800 193.329,148.620 192.800,148.400 192.800 C 148.180 192.800,148.000 192.260,148.000 191.600 C 148.000 190.940,147.820 190.400,147.600 190.400 C 147.380 190.400,147.200 189.860,147.200 189.200 C 147.200 188.540,147.020 188.000,146.800 188.000 C 146.580 188.000,146.400 187.460,146.400 186.800 C 146.400 186.140,146.220 185.600,146.000 185.600 C 145.780 185.600,145.600 185.060,145.600 184.400 C 145.600 183.740,145.420 183.200,145.200 183.200 C 144.980 183.200,144.800 182.660,144.800 182.000 C 144.800 181.340,144.620 180.800,144.400 180.800 C 144.180 180.800,144.000 180.260,144.000 179.600 C 144.000 178.940,143.820 178.400,143.600 178.400 C 143.380 178.400,143.200 177.871,143.200 177.224 C 143.200 176.577,143.020 175.936,142.800 175.800 C 142.580 175.664,142.400 175.023,142.400 174.376 C 142.400 173.729,142.220 173.200,142.000 173.200 C 141.780 173.200,141.600 172.771,141.600 172.246 C 141.600 171.222,140.560 167.447,139.963 166.305 C 138.945 164.357,138.647 164.400,153.200 164.400 L 166.800 164.400 166.800 165.576 M328.400 342.200 L 328.400 379.200 200.000 379.200 L 71.600 379.200 71.600 342.200 L 71.600 305.200 200.000 305.200 L 328.400 305.200 328.400 342.200 " stroke="none" fill="#040404" fill-rule="evenodd"></path><path id="path1" d="" stroke="none" fill="#080404" fill-rule="evenodd"></path><path id="path2" d="" stroke="none" fill="#080404" fill-rule="evenodd"></path><path id="path3" d="" stroke="none" fill="#080404" fill-rule="evenodd"></path><path id="path4" d="" stroke="none" fill="#080404" fill-rule="evenodd"></path></g></svg>