<svg id="svg" version="1.1" xmlns="http://www.w3.org/2000/svg" xmlns:xlink="http://www.w3.org/1999/xlink" width="400" height="400" viewBox="0, 0, 400,400"><g id="svgg"><path id="path0" d="M25.066 1.197 C 24.480 1.855,24.000 2.665,24.000 2.997 C 24.000 3.328,23.820 3.600,23.600 3.600 C 23.359 3.600,23.200 5.267,23.200 7.800 C 23.200 10.333,23.359 12.000,23.600 12.000 C 23.842 12.000,24.000 13.733,24.000 16.400 C 24.000 19.067,24.158 20.800,24.400 20.800 C 24.633 20.800,24.808 22.179,24.819 24.100 C 24.837 27.235,25.180 32.372,26.029 42.200 C 26.238 44.620,26.512 48.490,26.637 50.800 C 26.763 53.110,27.031 55.171,27.233 55.380 C 27.435 55.589,27.600 57.603,27.600 59.856 C 27.600 62.156,27.775 64.061,28.000 64.200 C 28.225 64.339,28.400 66.244,28.400 68.544 C 28.400 70.797,28.569 72.811,28.775 73.020 C 28.981 73.229,29.250 75.290,29.372 77.600 C 29.494 79.910,29.697 83.690,29.823 86.000 C 29.949 88.310,30.220 90.371,30.426 90.580 C 30.632 90.789,30.800 92.803,30.800 95.056 C 30.800 97.356,30.975 99.261,31.200 99.400 C 31.425 99.539,31.600 101.471,31.600 103.824 C 31.600 106.341,31.759 108.000,32.000 108.000 C 32.242 108.000,32.400 109.725,32.400 112.376 C 32.400 114.863,32.573 116.860,32.800 117.000 C 33.025 117.139,33.200 119.063,33.200 121.400 C 33.200 123.737,33.375 125.661,33.600 125.800 C 33.825 125.939,34.000 127.863,34.000 130.200 C 34.000 132.537,34.175 134.461,34.400 134.600 C 34.625 134.739,34.800 136.671,34.800 139.024 C 34.800 141.541,34.959 143.200,35.200 143.200 C 35.442 143.200,35.600 144.933,35.600 147.600 C 35.600 150.267,35.758 152.000,36.000 152.000 C 36.242 152.000,36.400 153.725,36.400 156.376 C 36.400 158.863,36.573 160.860,36.800 161.000 C 37.025 161.139,37.200 163.063,37.200 165.400 C 37.200 167.737,37.375 169.661,37.600 169.800 C 37.825 169.939,38.000 171.871,38.000 174.224 C 38.000 176.741,38.159 178.400,38.400 178.400 C 38.642 178.400,38.800 180.133,38.800 182.800 C 38.800 185.467,38.958 187.200,39.200 187.200 C 39.441 187.200,39.600 188.867,39.600 191.400 C 39.600 193.933,39.759 195.600,40.000 195.600 C 40.243 195.600,40.400 197.400,40.400 200.200 C 40.400 203.000,40.557 204.800,40.800 204.800 C 41.038 204.800,41.200 206.301,41.201 208.500 C 41.202 210.535,41.389 213.730,41.617 215.600 C 42.070 219.311,42.740 228.287,43.034 234.600 C 43.136 236.800,43.391 238.960,43.600 239.400 C 43.809 239.840,44.074 242.000,44.188 244.200 C 44.753 255.081,44.879 256.628,45.226 256.980 C 45.432 257.189,45.600 259.203,45.600 261.456 C 45.600 263.756,45.775 265.661,46.000 265.800 C 46.225 265.939,46.400 267.871,46.400 270.224 C 46.400 272.741,46.559 274.400,46.800 274.400 C 47.042 274.400,47.200 276.125,47.200 278.776 C 47.200 281.263,47.373 283.260,47.600 283.400 C 47.825 283.539,48.000 285.463,48.000 287.800 C 48.000 290.137,48.175 292.061,48.400 292.200 C 48.625 292.339,48.800 294.263,48.800 296.600 C 48.800 298.937,48.975 300.861,49.200 301.000 C 49.425 301.139,49.600 303.071,49.600 305.424 C 49.600 307.941,49.759 309.600,50.000 309.600 C 50.242 309.600,50.400 311.333,50.400 314.000 C 50.400 316.667,50.558 318.400,50.800 318.400 C 51.042 318.400,51.200 320.125,51.200 322.776 C 51.200 325.263,51.373 327.260,51.600 327.400 C 51.825 327.539,52.000 329.463,52.000 331.800 C 52.000 334.137,52.175 336.061,52.400 336.200 C 52.625 336.339,52.800 338.271,52.800 340.624 C 52.800 343.141,52.959 344.800,53.200 344.800 C 53.442 344.800,53.600 346.533,53.600 349.200 C 53.600 351.867,53.758 353.600,54.000 353.600 C 54.220 353.600,54.400 354.322,54.400 355.205 C 54.400 358.130,59.333 363.600,61.971 363.600 C 62.401 363.600,62.864 363.780,63.000 364.000 C 63.136 364.220,63.867 364.400,64.624 364.400 C 65.381 364.400,66.000 364.580,66.000 364.800 C 66.000 365.020,66.619 365.200,67.376 365.200 C 68.133 365.200,68.864 365.380,69.000 365.600 C 69.136 365.820,69.777 366.000,70.424 366.000 C 71.071 366.000,71.600 366.180,71.600 366.400 C 71.600 366.620,72.320 366.800,73.200 366.800 C 74.080 366.800,74.800 366.980,74.800 367.200 C 74.800 367.420,75.340 367.600,76.000 367.600 C 76.660 367.600,77.200 367.780,77.200 368.000 C 77.200 368.220,77.830 368.400,78.600 368.400 C 79.370 368.400,80.000 368.580,80.000 368.800 C 80.000 369.020,80.720 369.200,81.600 369.200 C 82.480 369.200,83.200 369.380,83.200 369.600 C 83.200 369.820,83.740 370.000,84.400 370.000 C 85.060 370.000,85.600 370.180,85.600 370.400 C 85.600 370.620,86.320 370.800,87.200 370.800 C 88.080 370.800,88.800 370.980,88.800 371.200 C 88.800 371.420,89.192 371.600,89.672 371.600 C 90.592 371.600,92.928 372.260,94.095 372.849 C 94.477 373.042,95.244 373.200,95.800 373.200 C 96.356 373.200,97.123 373.358,97.505 373.551 C 98.727 374.168,100.940 374.754,103.100 375.032 C 104.255 375.181,105.200 375.460,105.200 375.652 C 105.200 375.843,105.920 376.000,106.800 376.000 C 107.680 376.000,108.400 376.180,108.400 376.400 C 108.400 376.620,108.929 376.800,109.576 376.800 C 110.223 376.800,110.864 376.980,111.000 377.200 C 111.136 377.420,111.777 377.600,112.424 377.600 C 113.071 377.600,113.600 377.780,113.600 378.000 C 113.600 378.220,114.320 378.400,115.200 378.400 C 116.080 378.400,116.800 378.580,116.800 378.800 C 116.800 379.020,117.340 379.200,118.000 379.200 C 118.660 379.200,119.200 379.380,119.200 379.600 C 119.200 379.820,119.920 380.000,120.800 380.000 C 121.680 380.000,122.400 380.180,122.400 380.400 C 122.400 380.620,123.019 380.800,123.776 380.800 C 124.533 380.800,125.264 380.980,125.400 381.200 C 125.536 381.420,126.076 381.600,126.600 381.600 C 127.124 381.600,127.664 381.780,127.800 382.000 C 127.936 382.220,128.667 382.400,129.424 382.400 C 130.181 382.400,130.800 382.580,130.800 382.800 C 130.800 383.020,131.329 383.200,131.976 383.200 C 132.623 383.200,133.264 383.380,133.400 383.600 C 133.536 383.820,134.267 384.000,135.024 384.000 C 135.781 384.000,136.400 384.180,136.400 384.400 C 136.400 384.620,137.019 384.800,137.776 384.800 C 138.533 384.800,139.264 384.980,139.400 385.200 C 139.536 385.420,140.177 385.600,140.824 385.600 C 141.471 385.600,142.000 385.780,142.000 386.000 C 142.000 386.220,142.619 386.400,143.376 386.400 C 144.133 386.400,144.864 386.580,145.000 386.800 C 145.136 387.020,145.766 387.200,146.400 387.200 C 147.034 387.200,147.664 387.380,147.800 387.600 C 147.936 387.820,148.577 388.000,149.224 388.000 C 149.871 388.000,150.400 388.180,150.400 388.400 C 150.400 388.620,151.120 388.800,152.000 388.800 C 152.880 388.800,153.600 388.960,153.600 389.156 C 153.600 389.352,154.230 389.622,155.000 389.756 C 155.770 389.890,157.030 390.110,157.800 390.244 C 158.570 390.378,159.200 390.634,159.200 390.812 C 159.200 390.990,160.370 391.262,161.800 391.415 C 163.230 391.568,164.400 391.852,164.400 392.047 C 164.400 392.241,165.120 392.400,166.000 392.400 C 166.880 392.400,167.600 392.580,167.600 392.800 C 167.600 393.020,168.140 393.200,168.800 393.200 C 169.460 393.200,170.000 393.380,170.000 393.600 C 170.000 393.820,170.720 394.000,171.600 394.000 C 172.480 394.000,173.200 394.180,173.200 394.400 C 173.200 394.620,173.740 394.800,174.400 394.800 C 175.060 394.800,175.600 394.980,175.600 395.200 C 175.600 395.420,176.230 395.600,177.000 395.600 C 177.770 395.600,178.400 395.780,178.400 396.000 C 178.400 396.220,179.120 396.400,180.000 396.400 C 180.880 396.400,181.600 396.580,181.600 396.800 C 181.600 397.020,182.140 397.200,182.800 397.200 C 183.460 397.200,184.000 397.380,184.000 397.600 C 184.000 397.820,184.720 398.000,185.600 398.000 C 186.480 398.000,187.200 398.180,187.200 398.400 C 187.200 398.620,187.704 398.800,188.320 398.800 C 188.936 398.800,189.665 399.025,189.940 399.300 C 190.660 400.021,209.259 400.021,209.500 399.300 C 209.595 399.013,210.336 398.800,211.233 398.800 C 212.095 398.800,212.800 398.620,212.800 398.400 C 212.800 398.180,213.340 398.000,214.000 398.000 C 214.660 398.000,215.200 397.820,215.200 397.600 C 215.200 397.380,215.920 397.200,216.800 397.200 C 217.680 397.200,218.400 397.020,218.400 396.800 C 218.400 396.580,218.929 396.400,219.576 396.400 C 220.223 396.400,220.864 396.220,221.000 396.000 C 221.136 395.780,221.766 395.600,222.400 395.600 C 223.034 395.600,223.664 395.420,223.800 395.200 C 223.936 394.980,224.667 394.800,225.424 394.800 C 226.181 394.800,226.800 394.620,226.800 394.400 C 226.800 394.180,227.340 394.000,228.000 394.000 C 228.660 394.000,229.200 393.820,229.200 393.600 C 229.200 393.380,229.920 393.200,230.800 393.200 C 231.680 393.200,232.400 393.020,232.400 392.800 C 232.400 392.580,233.030 392.400,233.800 392.400 C 234.570 392.400,235.200 392.257,235.200 392.082 C 235.200 391.907,236.415 391.544,237.900 391.274 C 239.385 391.003,241.185 390.677,241.900 390.548 C 242.615 390.418,243.200 390.152,243.200 389.956 C 243.200 389.760,243.819 389.600,244.576 389.600 C 245.333 389.600,246.064 389.420,246.200 389.200 C 246.336 388.980,246.966 388.800,247.600 388.800 C 248.234 388.800,248.864 388.620,249.000 388.400 C 249.136 388.180,249.867 388.000,250.624 388.000 C 251.381 388.000,252.000 387.820,252.000 387.600 C 252.000 387.380,252.619 387.200,253.376 387.200 C 254.133 387.200,254.864 387.020,255.000 386.800 C 255.136 386.580,255.676 386.400,256.200 386.400 C 256.724 386.400,257.264 386.220,257.400 386.000 C 257.536 385.780,258.267 385.600,259.024 385.600 C 259.781 385.600,260.400 385.420,260.400 385.200 C 260.400 384.980,261.019 384.800,261.776 384.800 C 262.533 384.800,263.264 384.620,263.400 384.400 C 263.536 384.180,264.177 384.000,264.824 384.000 C 265.471 384.000,266.000 383.820,266.000 383.600 C 266.000 383.380,266.619 383.200,267.376 383.200 C 268.133 383.200,268.864 383.020,269.000 382.800 C 269.136 382.580,269.777 382.400,270.424 382.400 C 271.071 382.400,271.600 382.220,271.600 382.000 C 271.600 381.780,272.219 381.600,272.976 381.600 C 273.733 381.600,274.464 381.420,274.600 381.200 C 274.736 380.980,275.467 380.800,276.224 380.800 C 276.981 380.800,277.600 380.620,277.600 380.400 C 277.600 380.180,278.140 380.000,278.800 380.000 C 279.460 380.000,280.000 379.820,280.000 379.600 C 280.000 379.380,280.720 379.200,281.600 379.200 C 282.480 379.200,283.200 379.020,283.200 378.800 C 283.200 378.580,283.729 378.400,284.376 378.400 C 285.023 378.400,285.664 378.220,285.800 378.000 C 285.936 377.780,286.667 377.600,287.424 377.600 C 288.181 377.600,288.800 377.420,288.800 377.200 C 288.800 376.980,289.430 376.800,290.200 376.800 C 290.970 376.800,291.600 376.620,291.600 376.400 C 291.600 376.180,292.140 376.000,292.800 376.000 C 293.460 376.000,294.000 375.843,294.000 375.652 C 294.000 375.460,295.260 375.179,296.800 375.027 C 298.340 374.876,299.600 374.582,299.600 374.376 C 299.600 374.169,300.219 374.000,300.976 374.000 C 301.733 374.000,302.464 373.820,302.600 373.600 C 302.736 373.380,303.366 373.200,304.000 373.200 C 304.634 373.200,305.264 373.020,305.400 372.800 C 305.536 372.580,306.166 372.400,306.800 372.400 C 307.434 372.400,308.064 372.220,308.200 372.000 C 308.336 371.780,309.067 371.600,309.824 371.600 C 310.581 371.600,311.200 371.420,311.200 371.200 C 311.200 370.980,311.729 370.800,312.376 370.800 C 313.023 370.800,313.664 370.620,313.800 370.400 C 313.936 370.180,314.667 370.000,315.424 370.000 C 316.181 370.000,316.800 369.820,316.800 369.600 C 316.800 369.380,317.419 369.200,318.176 369.200 C 318.933 369.200,319.664 369.020,319.800 368.800 C 319.936 368.580,320.577 368.400,321.224 368.400 C 321.871 368.400,322.400 368.220,322.400 368.000 C 322.400 367.780,323.030 367.600,323.800 367.600 C 324.570 367.600,325.200 367.440,325.200 367.244 C 325.200 367.048,325.830 366.778,326.600 366.644 C 327.370 366.510,328.630 366.290,329.400 366.156 C 330.170 366.022,330.800 365.752,330.800 365.556 C 330.800 365.360,331.520 365.200,332.400 365.200 C 333.280 365.200,334.000 365.020,334.000 364.800 C 334.000 364.580,334.540 364.400,335.200 364.400 C 335.860 364.400,336.400 364.220,336.400 364.000 C 336.400 363.780,337.030 363.600,337.800 363.600 C 338.570 363.600,339.200 363.420,339.200 363.200 C 339.200 362.980,339.474 362.800,339.809 362.800 C 340.601 362.800,344.800 358.601,344.800 357.809 C 344.800 357.474,344.980 357.200,345.200 357.200 C 345.420 357.200,345.600 356.311,345.600 355.224 C 345.600 354.137,345.780 353.136,346.000 353.000 C 346.227 352.860,346.400 350.863,346.400 348.376 C 346.400 345.725,346.558 344.000,346.800 344.000 C 347.041 344.000,347.200 342.333,347.200 339.800 C 347.200 337.267,347.359 335.600,347.600 335.600 C 347.842 335.600,348.000 333.867,348.000 331.200 C 348.000 328.533,348.158 326.800,348.400 326.800 C 348.642 326.800,348.800 325.067,348.800 322.400 C 348.800 319.733,348.958 318.000,349.200 318.000 C 349.442 318.000,349.600 316.275,349.600 313.624 C 349.600 311.137,349.773 309.140,350.000 309.000 C 350.225 308.861,350.400 306.929,350.400 304.576 C 350.400 302.059,350.559 300.400,350.800 300.400 C 351.042 300.400,351.200 298.667,351.200 296.000 C 351.200 293.333,351.358 291.600,351.600 291.600 C 351.841 291.600,352.000 289.941,352.000 287.424 C 352.000 285.071,352.175 283.139,352.400 283.000 C 352.625 282.861,352.800 280.937,352.800 278.600 C 352.800 276.263,352.975 274.339,353.200 274.200 C 353.425 274.061,353.600 272.137,353.600 269.800 C 353.600 267.463,353.775 265.539,354.000 265.400 C 354.227 265.260,354.400 263.263,354.400 260.776 C 354.400 258.125,354.558 256.400,354.800 256.400 C 355.041 256.400,355.200 254.760,355.200 252.280 C 355.200 250.014,355.369 247.989,355.575 247.780 C 355.781 247.571,356.043 245.510,356.157 243.200 C 356.271 240.890,356.560 236.930,356.798 234.400 C 357.037 231.870,357.400 228.000,357.605 225.800 C 357.810 223.600,358.192 217.885,358.454 213.100 C 358.716 208.315,359.081 204.400,359.265 204.400 C 359.449 204.400,359.600 202.420,359.600 200.000 C 359.600 197.333,359.758 195.600,360.000 195.600 C 360.241 195.600,360.400 193.941,360.400 191.424 C 360.400 189.071,360.575 187.139,360.800 187.000 C 361.025 186.861,361.200 184.937,361.200 182.600 C 361.200 180.263,361.375 178.339,361.600 178.200 C 361.827 178.060,362.000 176.063,362.000 173.576 C 362.000 170.925,362.158 169.200,362.400 169.200 C 362.642 169.200,362.800 167.467,362.800 164.800 C 362.800 162.133,362.958 160.400,363.200 160.400 C 363.441 160.400,363.600 158.733,363.600 156.200 C 363.600 153.667,363.759 152.000,364.000 152.000 C 364.242 152.000,364.400 150.267,364.400 147.600 C 364.400 144.933,364.558 143.200,364.800 143.200 C 365.042 143.200,365.200 141.467,365.200 138.800 C 365.200 136.133,365.358 134.400,365.600 134.400 C 365.842 134.400,366.000 132.675,366.000 130.024 C 366.000 127.537,366.173 125.540,366.400 125.400 C 366.625 125.261,366.800 123.329,366.800 120.976 C 366.800 118.459,366.959 116.800,367.200 116.800 C 367.442 116.800,367.600 115.067,367.600 112.400 C 367.600 109.733,367.758 108.000,368.000 108.000 C 368.241 108.000,368.400 106.341,368.400 103.824 C 368.400 101.471,368.575 99.539,368.800 99.400 C 369.025 99.261,369.200 97.337,369.200 95.000 C 369.200 92.663,369.375 90.739,369.600 90.600 C 369.825 90.461,370.000 88.537,370.000 86.200 C 370.000 83.863,370.175 81.939,370.400 81.800 C 370.625 81.661,370.800 79.737,370.800 77.400 C 370.800 75.063,370.975 73.139,371.200 73.000 C 371.425 72.861,371.600 70.937,371.600 68.600 C 371.600 66.263,371.775 64.339,372.000 64.200 C 372.225 64.061,372.400 62.156,372.400 59.856 C 372.400 57.603,372.565 55.589,372.767 55.380 C 372.969 55.171,373.239 53.110,373.368 50.800 C 373.496 48.490,373.780 44.620,373.997 42.200 C 374.215 39.780,374.602 33.975,374.857 29.300 C 375.113 24.625,375.474 20.800,375.661 20.800 C 375.847 20.800,376.000 18.820,376.000 16.400 C 376.000 13.733,376.158 12.000,376.400 12.000 C 376.641 12.000,376.800 10.333,376.800 7.800 C 376.800 5.267,376.641 3.600,376.400 3.600 C 376.180 3.600,376.000 3.317,376.000 2.971 C 376.000 2.626,375.775 2.092,375.500 1.785 C 375.225 1.479,374.768 0.952,374.484 0.614 C 374.022 0.064,355.901 0.000,200.050 0.000 L 26.132 0.000 25.066 1.197 M307.775 75.717 C 309.045 76.987,309.155 96.185,307.900 97.435 C 307.735 97.599,307.600 99.593,307.600 101.867 C 307.600 104.356,307.441 106.000,307.200 106.000 C 306.959 106.000,306.800 107.667,306.800 110.200 C 306.800 112.733,306.641 114.400,306.400 114.400 C 306.180 114.400,306.000 115.120,306.000 116.000 L 306.000 117.600 223.478 117.600 L 140.956 117.600 139.478 118.954 C 138.665 119.699,138.000 120.599,138.000 120.954 C 138.000 121.309,137.820 121.600,137.600 121.600 C 137.365 121.600,137.200 123.000,137.200 125.000 C 137.200 127.000,137.365 128.400,137.600 128.400 C 137.842 128.400,138.000 130.125,138.000 132.776 C 138.000 135.263,138.173 137.260,138.400 137.400 C 138.627 137.540,138.800 139.537,138.800 142.024 C 138.800 144.675,138.958 146.400,139.200 146.400 C 139.441 146.400,139.600 148.059,139.600 150.576 C 139.600 152.929,139.775 154.861,140.000 155.000 C 140.220 155.136,140.400 155.906,140.400 156.712 C 140.400 158.298,141.943 161.981,142.612 161.993 C 142.838 161.997,143.283 162.360,143.600 162.800 C 144.002 163.357,144.635 163.600,145.688 163.600 C 146.520 163.600,147.200 163.780,147.200 164.000 C 147.200 164.265,172.671 164.400,222.813 164.400 L 298.427 164.400 299.813 165.787 L 301.200 167.173 301.200 171.787 C 301.200 174.596,301.044 176.400,300.800 176.400 C 300.559 176.400,300.400 178.067,300.400 180.600 C 300.400 183.133,300.241 184.800,300.000 184.800 C 299.758 184.800,299.600 186.533,299.600 189.200 C 299.600 191.671,299.436 193.600,299.225 193.600 C 299.019 193.600,298.750 195.535,298.628 197.900 C 298.506 200.265,298.303 204.180,298.178 206.600 C 298.052 209.020,297.781 211.171,297.575 211.380 C 297.369 211.589,297.200 213.614,297.200 215.880 C 297.200 218.360,297.041 220.000,296.800 220.000 C 296.559 220.000,296.400 221.659,296.400 224.176 C 296.400 226.529,296.225 228.461,296.000 228.600 C 295.775 228.739,295.600 230.663,295.600 233.000 C 295.600 235.337,295.425 237.261,295.200 237.400 C 294.975 237.539,294.800 239.444,294.800 241.744 C 294.800 243.997,294.631 246.011,294.425 246.220 C 294.219 246.429,293.955 248.490,293.837 250.800 C 293.720 253.110,293.446 256.980,293.227 259.400 C 293.009 261.820,292.659 266.230,292.450 269.200 C 292.241 272.170,291.874 276.348,291.635 278.484 C 291.396 280.621,291.200 283.996,291.200 285.984 C 291.200 288.128,291.037 289.600,290.800 289.600 C 290.569 289.600,290.400 290.867,290.400 292.600 C 290.400 294.333,290.231 295.600,290.000 295.600 C 289.780 295.600,289.600 295.883,289.600 296.229 C 289.600 297.000,288.649 298.000,287.917 298.000 C 287.620 298.000,287.117 298.360,286.800 298.800 C 286.483 299.240,285.824 299.600,285.335 299.600 C 284.847 299.600,284.336 299.780,284.200 300.000 C 284.064 300.220,283.524 300.400,283.000 300.400 C 282.476 300.400,281.936 300.580,281.800 300.800 C 281.664 301.020,281.023 301.200,280.376 301.200 C 279.729 301.200,279.200 301.380,279.200 301.600 C 279.200 301.820,278.570 302.000,277.800 302.000 C 277.030 302.000,276.400 302.180,276.400 302.400 C 276.400 302.620,275.781 302.800,275.024 302.800 C 274.267 302.800,273.536 302.980,273.400 303.200 C 273.264 303.420,272.623 303.600,271.976 303.600 C 271.329 303.600,270.800 303.780,270.800 304.000 C 270.800 304.220,270.080 304.400,269.200 304.400 C 268.320 304.400,267.600 304.580,267.600 304.800 C 267.600 305.020,267.060 305.200,266.400 305.200 C 265.740 305.200,265.200 305.380,265.200 305.600 C 265.200 305.820,264.480 306.000,263.600 306.000 C 262.720 306.000,262.000 306.180,262.000 306.400 C 262.000 306.620,261.370 306.800,260.600 306.800 C 259.830 306.800,259.200 306.980,259.200 307.200 C 259.200 307.420,258.660 307.600,258.000 307.600 C 257.340 307.600,256.800 307.754,256.800 307.943 C 256.800 308.132,255.683 308.403,254.318 308.546 C 252.952 308.688,251.656 308.984,251.438 309.202 C 251.219 309.421,250.457 309.600,249.744 309.600 C 249.031 309.600,248.336 309.780,248.200 310.000 C 248.064 310.220,247.434 310.400,246.800 310.400 C 246.166 310.400,245.536 310.580,245.400 310.800 C 245.264 311.020,244.634 311.200,244.000 311.200 C 243.366 311.200,242.736 311.380,242.600 311.600 C 242.464 311.820,241.733 312.000,240.976 312.000 C 240.219 312.000,239.600 312.180,239.600 312.400 C 239.600 312.620,239.060 312.800,238.400 312.800 C 237.740 312.800,237.200 312.980,237.200 313.200 C 237.200 313.420,236.480 313.600,235.600 313.600 C 234.720 313.600,234.000 313.780,234.000 314.000 C 234.000 314.220,233.381 314.400,232.624 314.400 C 231.867 314.400,231.136 314.580,231.000 314.800 C 230.864 315.020,230.223 315.200,229.576 315.200 C 228.929 315.200,228.400 315.380,228.400 315.600 C 228.400 315.820,227.770 316.000,227.000 316.000 C 226.230 316.000,225.600 316.180,225.600 316.400 C 225.600 316.620,225.071 316.800,224.424 316.800 C 223.777 316.800,223.136 316.980,223.000 317.200 C 222.864 317.420,222.133 317.600,221.376 317.600 C 220.619 317.600,220.000 317.780,220.000 318.000 C 220.000 318.220,219.381 318.400,218.624 318.400 C 217.867 318.400,217.136 318.580,217.000 318.800 C 216.864 319.020,216.223 319.200,215.576 319.200 C 214.929 319.200,214.400 319.380,214.400 319.600 C 214.400 319.820,213.781 320.000,213.024 320.000 C 212.267 320.000,211.536 320.180,211.400 320.400 C 211.264 320.620,210.634 320.800,210.000 320.800 C 209.366 320.800,208.736 320.980,208.600 321.200 C 208.464 321.420,207.823 321.600,207.176 321.600 C 206.529 321.600,206.000 321.780,206.000 322.000 C 206.000 322.220,205.280 322.400,204.400 322.400 C 203.520 322.400,202.800 322.580,202.800 322.800 C 202.800 323.020,202.275 323.200,201.633 323.200 C 200.992 323.200,200.362 323.425,200.233 323.700 C 200.047 324.100,199.953 324.100,199.767 323.700 C 199.638 323.425,198.829 323.200,197.967 323.200 C 197.105 323.200,196.400 323.020,196.400 322.800 C 196.400 322.580,195.860 322.400,195.200 322.400 C 194.540 322.400,194.000 322.220,194.000 322.000 C 194.000 321.780,193.381 321.600,192.624 321.600 C 191.867 321.600,191.136 321.420,191.000 321.200 C 190.864 320.980,190.234 320.800,189.600 320.800 C 188.966 320.800,188.336 320.620,188.200 320.400 C 188.064 320.180,187.423 320.000,186.776 320.000 C 186.129 320.000,185.600 319.820,185.600 319.600 C 185.600 319.380,184.880 319.200,184.000 319.200 C 183.120 319.200,182.400 319.020,182.400 318.800 C 182.400 318.580,181.871 318.400,181.224 318.400 C 180.577 318.400,179.936 318.220,179.800 318.000 C 179.664 317.780,178.933 317.600,178.176 317.600 C 177.419 317.600,176.800 317.420,176.800 317.200 C 176.800 316.980,176.181 316.800,175.424 316.800 C 174.667 316.800,173.936 316.620,173.800 316.400 C 173.664 316.180,173.124 316.000,172.600 316.000 C 172.076 316.000,171.536 315.820,171.400 315.600 C 171.264 315.380,170.533 315.200,169.776 315.200 C 169.019 315.200,168.400 315.040,168.400 314.844 C 168.400 314.507,167.951 314.390,164.300 313.768 C 163.475 313.627,162.800 313.352,162.800 313.156 C 162.800 312.960,162.080 312.800,161.200 312.800 C 160.320 312.800,159.600 312.620,159.600 312.400 C 159.600 312.180,159.071 312.000,158.424 312.000 C 157.777 312.000,157.136 311.820,157.000 311.600 C 156.864 311.380,156.234 311.200,155.600 311.200 C 154.966 311.200,154.336 311.020,154.200 310.800 C 154.064 310.580,153.434 310.400,152.800 310.400 C 152.166 310.400,151.548 310.240,151.427 310.044 C 151.306 309.849,150.621 309.585,149.904 309.459 C 144.226 308.461,143.200 308.228,143.200 307.934 C 143.200 307.750,142.570 307.600,141.800 307.600 C 141.030 307.600,140.400 307.420,140.400 307.200 C 140.400 306.980,139.770 306.800,139.000 306.800 C 138.230 306.800,137.600 306.620,137.600 306.400 C 137.600 306.180,136.970 306.000,136.200 306.000 C 135.430 306.000,134.800 305.820,134.800 305.600 C 134.800 305.380,134.080 305.200,133.200 305.200 C 132.320 305.200,131.600 305.020,131.600 304.800 C 131.600 304.580,131.060 304.400,130.400 304.400 C 129.740 304.400,129.200 304.220,129.200 304.000 C 129.200 303.780,128.480 303.600,127.600 303.600 C 126.720 303.600,126.000 303.420,126.000 303.200 C 126.000 302.980,125.471 302.800,124.824 302.800 C 124.177 302.800,123.536 302.620,123.400 302.400 C 123.264 302.180,122.623 302.000,121.976 302.000 C 121.329 302.000,120.800 301.820,120.800 301.600 C 120.800 301.380,120.080 301.200,119.200 301.200 C 118.320 301.200,117.600 301.020,117.600 300.800 C 117.600 300.580,117.060 300.400,116.400 300.400 C 115.740 300.400,115.200 300.220,115.200 300.000 C 115.200 299.780,114.912 299.600,114.560 299.600 C 113.804 299.600,110.400 296.112,110.400 295.336 C 110.400 295.041,110.220 294.800,110.000 294.800 C 109.780 294.800,109.600 294.260,109.600 293.600 C 109.600 292.940,109.446 292.400,109.258 292.400 C 109.071 292.400,108.708 288.665,108.453 284.100 C 108.199 279.535,107.807 273.820,107.584 271.400 C 107.360 268.980,107.081 265.200,106.963 263.000 C 106.845 260.800,106.580 258.829,106.374 258.620 C 106.168 258.411,106.000 256.307,106.000 253.944 C 106.000 251.511,105.826 249.540,105.600 249.400 C 105.375 249.261,105.200 247.337,105.200 245.000 C 105.200 242.663,105.025 240.739,104.800 240.600 C 103.944 240.071,104.328 234.490,105.300 233.346 C 107.650 230.577,105.900 230.800,125.275 230.800 C 136.692 230.800,142.800 230.939,142.800 231.200 C 142.800 231.420,142.986 231.600,143.213 231.600 C 143.944 231.600,146.400 234.346,146.400 235.163 C 146.400 235.597,146.580 236.064,146.800 236.200 C 147.020 236.336,147.200 237.686,147.200 239.200 C 147.200 240.714,147.380 242.064,147.600 242.200 C 147.825 242.339,148.000 244.244,148.000 246.544 C 148.000 248.797,148.168 250.811,148.373 251.020 C 148.579 251.229,148.829 253.110,148.929 255.200 C 149.154 259.874,149.496 261.522,150.457 262.553 C 150.866 262.992,151.200 263.503,151.200 263.689 C 151.200 264.265,153.940 266.800,154.563 266.800 C 154.887 266.800,155.264 266.980,155.400 267.200 C 155.536 267.420,156.087 267.600,156.624 267.600 C 157.161 267.600,157.600 267.780,157.600 268.000 C 157.600 268.220,158.219 268.400,158.976 268.400 C 159.733 268.400,160.464 268.580,160.600 268.800 C 160.736 269.020,161.467 269.200,162.224 269.200 C 162.981 269.200,163.600 269.360,163.600 269.556 C 163.600 269.752,164.230 270.022,165.000 270.156 C 165.770 270.290,167.032 270.510,167.804 270.644 C 168.576 270.779,169.306 271.049,169.427 271.244 C 169.548 271.440,170.267 271.600,171.024 271.600 C 171.781 271.600,172.400 271.780,172.400 272.000 C 172.400 272.220,173.019 272.400,173.776 272.400 C 174.533 272.400,175.264 272.580,175.400 272.800 C 175.536 273.020,176.166 273.200,176.800 273.200 C 177.434 273.200,178.052 273.360,178.173 273.556 C 178.294 273.751,178.979 274.015,179.696 274.141 C 185.374 275.139,186.400 275.372,186.400 275.666 C 186.400 275.850,187.120 276.000,188.000 276.000 C 188.880 276.000,189.600 276.180,189.600 276.400 C 189.600 276.620,190.219 276.800,190.976 276.800 C 191.733 276.800,192.464 276.980,192.600 277.200 C 192.736 277.420,193.366 277.600,194.000 277.600 C 194.634 277.600,195.264 277.780,195.400 278.000 C 195.536 278.220,196.177 278.400,196.824 278.400 C 197.471 278.400,198.000 278.580,198.000 278.800 C 198.000 279.020,198.720 279.200,199.600 279.200 C 200.480 279.200,201.200 279.020,201.200 278.800 C 201.200 278.580,201.920 278.400,202.800 278.400 C 203.680 278.400,204.400 278.220,204.400 278.000 C 204.400 277.780,205.030 277.600,205.800 277.600 C 206.570 277.600,207.200 277.420,207.200 277.200 C 207.200 276.980,207.729 276.800,208.376 276.800 C 209.023 276.800,209.664 276.620,209.800 276.400 C 209.936 276.180,210.667 276.000,211.424 276.000 C 212.181 276.000,212.800 275.843,212.800 275.652 C 212.800 275.460,214.056 275.180,215.591 275.028 C 217.126 274.877,218.486 274.584,218.614 274.377 C 218.742 274.170,219.366 274.000,220.000 274.000 C 220.634 274.000,221.264 273.820,221.400 273.600 C 221.536 273.380,222.267 273.200,223.024 273.200 C 223.781 273.200,224.400 273.020,224.400 272.800 C 224.400 272.580,225.019 272.400,225.776 272.400 C 226.533 272.400,227.264 272.220,227.400 272.000 C 227.536 271.780,228.166 271.600,228.800 271.600 C 229.434 271.600,230.064 271.420,230.200 271.200 C 230.336 270.980,231.067 270.800,231.824 270.800 C 232.581 270.800,233.200 270.620,233.200 270.400 C 233.200 270.180,233.819 270.000,234.576 270.000 C 235.333 270.000,236.064 269.820,236.200 269.600 C 236.336 269.380,236.966 269.200,237.600 269.200 C 238.234 269.200,238.864 269.020,239.000 268.800 C 239.136 268.580,239.777 268.400,240.424 268.400 C 241.071 268.400,241.600 268.220,241.600 268.000 C 241.600 267.780,242.140 267.600,242.800 267.600 C 243.460 267.600,244.000 267.420,244.000 267.200 C 244.000 266.980,244.294 266.800,244.653 266.800 C 245.012 266.800,245.597 266.473,245.953 266.072 C 246.309 265.672,246.915 265.228,247.300 265.085 C 247.685 264.942,248.000 264.589,248.000 264.301 C 248.000 264.013,248.360 263.517,248.800 263.200 C 249.240 262.883,249.600 262.303,249.600 261.912 C 249.600 261.520,249.780 261.200,250.000 261.200 C 250.222 261.200,250.400 260.133,250.400 258.800 C 250.400 257.467,250.578 256.400,250.800 256.400 C 251.041 256.400,251.200 254.741,251.200 252.224 C 251.200 249.871,251.375 247.939,251.600 247.800 C 251.825 247.661,252.000 245.756,252.000 243.456 C 252.000 241.203,252.168 239.189,252.374 238.980 C 252.580 238.771,252.851 236.710,252.977 234.400 C 253.103 232.090,253.306 228.310,253.428 226.000 C 253.550 223.690,253.819 221.629,254.025 221.420 C 254.602 220.835,254.495 211.356,253.900 210.310 C 253.137 208.969,252.520 208.400,251.829 208.400 C 251.483 208.400,251.200 208.220,251.200 208.000 C 251.200 207.780,250.660 207.600,250.000 207.600 C 249.340 207.600,248.800 207.420,248.800 207.200 C 248.800 206.935,224.688 206.800,177.264 206.800 L 105.727 206.800 103.864 205.040 C 102.839 204.071,102.000 202.991,102.000 202.640 C 102.000 202.288,101.820 202.000,101.600 202.000 C 101.374 202.000,101.200 200.867,101.200 199.400 C 101.200 197.933,101.026 196.800,100.800 196.800 C 100.558 196.800,100.400 195.067,100.400 192.400 C 100.400 189.733,100.242 188.000,100.000 188.000 C 99.759 188.000,99.600 186.341,99.600 183.824 C 99.600 181.471,99.425 179.539,99.200 179.400 C 98.975 179.261,98.800 177.329,98.800 174.976 C 98.800 172.459,98.641 170.800,98.400 170.800 C 98.158 170.800,98.000 169.075,98.000 166.424 C 98.000 163.937,97.827 161.940,97.600 161.800 C 97.373 161.660,97.200 159.663,97.200 157.176 C 97.200 154.525,97.042 152.800,96.800 152.800 C 96.559 152.800,96.400 151.141,96.400 148.624 C 96.400 146.271,96.225 144.339,96.000 144.200 C 95.775 144.061,95.600 142.129,95.600 139.776 C 95.600 137.259,95.441 135.600,95.200 135.600 C 94.958 135.600,94.800 133.875,94.800 131.224 C 94.800 128.737,94.627 126.740,94.400 126.600 C 94.175 126.461,94.000 124.537,94.000 122.200 C 94.000 119.863,93.825 117.939,93.600 117.800 C 93.375 117.661,93.200 115.729,93.200 113.376 C 93.200 110.859,93.041 109.200,92.800 109.200 C 92.558 109.200,92.400 107.467,92.400 104.800 C 92.400 102.380,92.247 100.400,92.061 100.400 C 91.874 100.400,91.513 96.575,91.257 91.900 C 91.002 87.225,90.690 82.193,90.564 80.718 C 90.420 79.021,90.497 77.845,90.775 77.518 C 91.017 77.233,91.529 76.616,91.913 76.147 C 92.989 74.834,88.192 74.887,200.629 74.945 C 302.403 74.998,307.089 75.031,307.775 75.717 " stroke="none" fill="#040404" fill-rule="evenodd"></path><path id="path1" d="" stroke="none" fill="#080404" fill-rule="evenodd"></path><path id="path2" d="" stroke="none" fill="#080404" fill-rule="evenodd"></path><path id="path3" d="" stroke="none" fill="#080404" fill-rule="evenodd"></path><path id="path4" d="" stroke="none" fill="#080404" fill-rule="evenodd"></path></g></svg>